# WaveFront *.obj file (generated by Autodesk ATF)

mtllib Heatset stand.mtl

g Heatset stand

v -22.900000 -11.000000 11.500000
v -20.900000 -11.000000 13.500000
v -20.900000 -2.420786 13.500000
v -22.900000 -4.420786 11.500000
v -22.900000 -11.000000 5.000000
v -7.505553 -11.000000 5.000000
v -5.196152 -11.000000 9.000000
v 5.196152 -11.000000 9.000000
v 7.505553 -11.000000 5.000000
v 22.900000 -11.000000 5.000000
v 22.900000 -11.000000 11.500000
v 20.900000 -11.000000 13.500000
v -22.900000 -4.420786 -11.300000
v -22.900000 -11.000000 -11.300000
v -22.900000 -11.000000 -5.000000
v -22.900000 -10.000000 -4.000000
v -22.900000 -10.000000 4.000000
v 22.900000 -0.057523 11.500000
v 20.900000 1.942477 13.500000
v 15.095473 7.747004 -9.000000
v 18.769708 4.072769 -0.000000
v 15.095473 7.747004 9.000000
v 7.747004 15.095473 9.000000
v 4.072769 18.769708 -0.000000
v 7.747004 15.095473 -9.000000
v 22.900000 -0.057523 -11.300000
v 20.900000 1.942477 -13.300000
v 0.060311 22.782166 -13.300000
v 0.060311 22.782166 13.500000
v 22.900000 -10.000000 4.000000
v 22.900000 -10.000000 -4.000000
v 22.900000 -11.000000 -5.000000
v 22.900000 -11.000000 -11.300000
v 20.900000 -11.000000 -13.300000
v -19.946469 -1.467255 -13.300000
v -19.946469 -7.570325 -13.300000
v 18.757359 -7.570325 -13.300000
v 18.757359 -0.157523 -13.300000
v 0.060311 18.539525 -13.300000
v -20.900000 -11.000000 -13.300000
v -20.900000 -2.420786 -13.300000
v -42.493816 -24.014602 -13.300000
v -44.615136 -21.893282 -13.300000
v 7.505553 -11.000000 -5.000000
v 5.196152 -11.000000 -9.000000
v -5.196152 -11.000000 -9.000000
v -7.505553 -11.000000 -5.000000
v -8.082904 -10.000000 -4.000000
v -10.392305 -10.000000 -0.000000
v -8.082904 -10.000000 4.000000
v 8.082904 -10.000000 -4.000000
v 8.082904 -10.000000 4.000000
v 10.392305 -10.000000 0.000000
v 5.196152 -7.570325 9.000000
v 10.392305 -7.570325 0.000000
v -5.196152 -7.570325 -9.000000
v -10.392305 -7.570325 -0.000000
v -5.196152 -7.570325 9.000000
v 5.196152 -7.570325 -9.000000
v 5.625684 12.974153 9.000000
v 1.951449 16.648387 -0.000000
v 12.974153 5.625684 9.000000
v 16.648387 1.951449 -0.000000
v 12.974153 5.625684 -9.000000
v 5.625684 12.974153 -9.000000
v -16.588076 1.891138 -0.000000
v -12.913841 5.565372 -9.000000
v -15.035162 7.686693 -9.000000
v -18.709396 4.012458 -0.000000
v -12.913841 5.565372 9.000000
v -15.035162 7.686693 9.000000
v -5.565372 12.913841 9.000000
v -7.686693 15.035162 9.000000
v -1.891138 16.588076 -0.000000
v -4.012458 18.709396 -0.000000
v -5.565372 12.913841 -9.000000
v -7.686693 15.035162 -9.000000
v 0.060311 18.539525 13.500000
v -19.946469 -1.467255 13.500000
v 18.757359 -0.157523 13.500000
v 18.757359 -7.570325 13.500000
v -19.946469 -7.570325 13.500000
v -44.615136 -21.893282 13.500000
v -42.493816 -24.014602 13.500000
vt -0.141421 -0.519189 0.000000
vt 0.141421 -0.519189 0.000000
vt -0.141421 0.138732 0.000000
vt 0.141421 0.338732 0.000000
vt 4.590000 0.210000 0.000000
vt 2.819615 0.460000 0.000000
vt 4.390000 0.010000 0.000000
vt 1.780385 0.460000 0.000000
vt 0.210000 0.010000 0.000000
vt 0.010000 0.210000 0.000000
vt 0.010000 0.860000 0.000000
vt 1.549445 0.860000 0.000000
vt 4.590000 0.860000 0.000000
vt 3.050555 0.860000 0.000000
vt 0.000000 0.860000 0.000000
vt 0.000000 0.210000 0.000000
vt 0.100000 0.960000 0.000000
vt 0.657921 0.210000 0.000000
vt 0.657921 2.490000 0.000000
vt 0.100000 1.760000 0.000000
vt 0.000000 2.490000 0.000000
vt 0.000000 1.860000 0.000000
vt -0.141421 0.232935 0.000000
vt -0.141421 -1.061313 0.000000
vt 0.141421 0.032935 0.000000
vt 0.141421 -1.061313 0.000000
vt 2.645908 1.360000 0.000000
vt 3.230020 2.490000 0.000000
vt 2.126293 2.260000 0.000000
vt 2.947177 2.690000 0.000000
vt 1.087062 2.260000 0.000000
vt -0.000000 2.690000 0.000000
vt 0.567447 1.360000 0.000000
vt -0.000000 0.010000 0.000000
vt 1.087062 0.460000 0.000000
vt 2.947177 0.010000 0.000000
vt 2.126293 0.460000 0.000000
vt 3.230020 0.210000 0.000000
vt -0.010000 2.490000 0.000000
vt -0.010000 0.210000 0.000000
vt 0.984248 0.960000 0.000000
vt 1.084248 0.210000 0.000000
vt 1.084248 0.860000 0.000000
vt 0.984248 1.760000 0.000000
vt 1.084248 2.490000 0.000000
vt 1.084248 1.860000 0.000000
vt -0.141421 -1.061313 0.000000
vt 0.141421 -1.061313 0.000000
vt -0.141421 0.032935 0.000000
vt 0.141421 0.232935 0.000000
vt 0.913890 -0.695411 0.000000
vt 1.009243 -0.180457 0.000000
vt 0.913890 -0.085104 0.000000
vt 3.380757 -2.127706 0.000000
vt -1.086788 2.339838 0.000000
vt 1.009243 -1.038378 0.000000
vt -2.956493 -0.695411 0.000000
vt -3.170757 -1.038378 0.000000
vt -3.170757 0.255870 0.000000
vt -2.956493 0.045870 0.000000
vt -1.086788 1.915574 0.000000
vt 3.168625 -2.339838 0.000000
vt 0.010000 2.490000 0.000000
vt 1.780385 2.260000 0.000000
vt 0.210000 2.690000 0.000000
vt 2.819615 2.260000 0.000000
vt 4.390000 2.690000 0.000000
vt 4.590000 2.490000 0.000000
vt 4.590000 1.860000 0.000000
vt 3.050555 1.860000 0.000000
vt 0.010000 1.860000 0.000000
vt 1.549445 1.860000 0.000000
vt 0.141421 -0.519189 0.000000
vt 0.141421 0.138732 0.000000
vt -0.141421 -0.519189 0.000000
vt -0.141421 0.338732 0.000000
vt -0.375278 -0.070711 0.000000
vt -0.433013 0.070711 0.000000
vt -1.914722 -0.070711 0.000000
vt -1.914722 0.070711 0.000000
vt 0.410000 -0.808290 0.000000
vt 0.010000 -1.039230 0.000000
vt 0.410000 -2.290000 0.000000
vt -0.390000 -2.290000 0.000000
vt -0.390000 -0.808290 0.000000
vt 1.145000 0.070711 0.000000
vt -0.336710 0.070711 0.000000
vt 1.145000 -0.070711 0.000000
vt -0.394445 -0.070711 0.000000
vt 0.410000 0.808290 0.000000
vt 0.410000 2.290000 0.000000
vt 0.010000 1.039230 0.000000
vt -0.390000 2.290000 0.000000
vt -0.390000 0.808290 0.000000
vt -0.375278 -0.070711 0.000000
vt -0.433013 0.070711 0.000000
vt -1.914722 -0.070711 0.000000
vt -1.914722 0.070711 0.000000
vt 1.145000 0.070711 0.000000
vt -0.336710 0.070711 0.000000
vt 1.145000 -0.070711 0.000000
vt -0.394445 -0.070711 0.000000
vt -1.039230 0.100000 0.000000
vt -0.577350 0.100000 0.000000
vt -1.039230 0.342968 0.000000
vt 0.000000 0.342968 0.000000
vt 0.000000 0.000000 0.000000
vt -0.461880 0.000000 0.000000
vt -1.039230 0.100000 0.000000
vt -0.577350 0.100000 0.000000
vt -1.039230 0.342968 0.000000
vt -0.000000 0.342968 0.000000
vt -0.000000 0.000000 0.000000
vt -0.461880 0.000000 0.000000
vt -0.000000 0.342968 0.000000
vt -1.039230 0.342968 0.000000
vt -0.000000 0.000000 0.000000
vt -1.039230 0.000000 0.000000
vt -0.000000 0.100000 0.000000
vt -0.000000 0.342968 0.000000
vt -0.461880 0.100000 0.000000
vt -1.039230 0.342968 0.000000
vt -1.039230 0.000000 0.000000
vt -0.577350 0.000000 0.000000
vt -0.000000 0.342968 0.000000
vt -1.039230 0.342968 0.000000
vt -0.000000 0.000000 0.000000
vt -1.039230 0.000000 0.000000
vt 0.000000 0.100000 0.000000
vt 0.000000 0.342968 0.000000
vt -0.461880 0.100000 0.000000
vt -1.039230 0.342968 0.000000
vt -1.039230 0.000000 0.000000
vt -0.577350 0.000000 0.000000
vt -0.000000 0.300000 0.000000
vt -1.039230 0.300000 0.000000
vt -0.000000 -0.000000 0.000000
vt -1.039230 0.000000 0.000000
vt 0.000000 0.300000 0.000000
vt -1.039230 0.300000 0.000000
vt -0.000000 0.000000 0.000000
vt -1.039230 0.000000 0.000000
vt 0.000000 0.300000 0.000000
vt -1.039230 0.300000 0.000000
vt 0.000000 -0.000000 0.000000
vt -1.039230 -0.000000 0.000000
vt 0.000000 0.300000 0.000000
vt -1.039230 0.300000 0.000000
vt 0.000000 0.000000 0.000000
vt -1.039230 -0.000000 0.000000
vt -0.000000 0.300000 0.000000
vt -1.039230 0.300000 0.000000
vt -0.000000 -0.000000 0.000000
vt -1.039230 -0.000000 0.000000
vt 0.000000 0.300000 0.000000
vt -1.039230 0.300000 0.000000
vt 0.000000 -0.000000 0.000000
vt -1.039230 -0.000000 0.000000
vt 0.000000 0.300000 0.000000
vt -1.039230 0.300000 0.000000
vt 0.000000 -0.000000 0.000000
vt -1.039230 -0.000000 0.000000
vt 0.000000 0.300000 0.000000
vt -1.039230 0.300000 0.000000
vt 0.000000 0.000000 0.000000
vt -1.039230 0.000000 0.000000
vt 0.000000 0.300000 0.000000
vt -1.039230 0.300000 0.000000
vt 0.000000 0.000000 0.000000
vt -1.039230 0.000000 0.000000
vt -0.000000 0.300000 0.000000
vt -1.039230 0.300000 0.000000
vt -0.000000 0.000000 0.000000
vt -1.039230 0.000000 0.000000
vt 0.000000 0.300000 0.000000
vt -1.039230 0.300000 0.000000
vt 0.000000 -0.000000 0.000000
vt -1.039230 -0.000000 0.000000
vt -0.000000 0.300000 0.000000
vt -1.039230 0.300000 0.000000
vt -0.000000 0.000000 0.000000
vt -1.039230 -0.000000 0.000000
vt 1.834822 0.460000 0.000000
vt 0.795592 0.460000 0.000000
vt -0.000000 0.010000 0.000000
vt 0.275977 1.360000 0.000000
vt -0.000000 2.690000 0.000000
vt 0.795592 2.260000 0.000000
vt 1.834822 2.260000 0.000000
vt 2.829386 2.690000 0.000000
vt 2.354438 1.360000 0.000000
vt 2.829386 0.010000 0.000000
vt 0.817869 2.260000 0.000000
vt 0.000000 2.690000 0.000000
vt 0.298254 1.360000 0.000000
vt 0.000000 0.010000 0.000000
vt 0.817869 0.460000 0.000000
vt 2.644162 0.010000 0.000000
vt 1.857099 0.460000 0.000000
vt 2.376715 1.360000 0.000000
vt 2.644162 2.690000 0.000000
vt 1.857099 2.260000 0.000000
vt 0.000000 0.010000 0.000000
vt 0.741280 0.010000 0.000000
vt 0.000000 2.690000 0.000000
vt 0.741280 2.690000 0.000000
vt 1.475032 2.260000 0.000000
vt 0.000000 2.690000 0.000000
vt 0.955416 1.360000 0.000000
vt 0.000000 0.010000 0.000000
vt 1.475032 0.460000 0.000000
vt 3.870383 0.010000 0.000000
vt 2.514262 0.460000 0.000000
vt 3.033877 1.360000 0.000000
vt 3.870383 2.690000 0.000000
vt 2.514262 2.260000 0.000000
vt 0.000000 0.010000 0.000000
vt 0.610307 0.010000 0.000000
vt 0.000000 2.690000 0.000000
vt 0.610307 2.690000 0.000000
vt 5.222471 0.460000 0.000000
vt 6.318062 0.010000 0.000000
vt 5.742086 1.360000 0.000000
vt 6.318062 2.690000 0.000000
vt 5.222471 2.260000 0.000000
vt 4.183240 2.260000 0.000000
vt -0.000000 2.690000 0.000000
vt 3.663625 1.360000 0.000000
vt -0.000000 0.010000 0.000000
vt 4.183240 0.460000 0.000000
vt 0.000000 0.010000 0.000000
vt 0.300000 0.010000 0.000000
vt 0.000000 2.690000 0.000000
vt 0.300000 2.690000 0.000000
vt -0.296985 0.010000 0.000000
vt 2.756842 0.010000 0.000000
vt -0.014142 0.210000 0.000000
vt -0.014142 2.490000 0.000000
vt 2.756842 2.690000 0.000000
vt -0.296985 2.690000 0.000000
vt 1.009243 1.038378 0.000000
vt 0.913890 0.695411 0.000000
vt 1.009243 0.180457 0.000000
vt 0.913890 0.085104 0.000000
vt 3.380757 2.127706 0.000000
vt -1.086788 -2.339838 0.000000
vt -1.086788 -1.915574 0.000000
vt -3.170757 -0.255870 0.000000
vt -2.956493 -0.045870 0.000000
vt -2.956493 0.695411 0.000000
vt -3.170757 1.038378 0.000000
vt 3.168625 2.339838 0.000000
vn -0.070711 -0.000000 0.070711
vn -0.070711 -0.000000 0.070711
vn -0.070711 -0.000000 0.070711
vn -0.070711 -0.000000 0.070711
vn 0.000000 -0.100000 0.000000
vn 0.000000 -0.100000 0.000000
vn 0.000000 -0.100000 0.000000
vn 0.000000 -0.100000 0.000000
vn 0.000000 -0.100000 0.000000
vn 0.000000 -0.100000 0.000000
vn 0.000000 -0.100000 0.000000
vn 0.000000 -0.100000 0.000000
vn 0.000000 -0.100000 0.000000
vn 0.000000 -0.100000 0.000000
vn -0.100000 -0.000000 0.000000
vn -0.100000 -0.000000 0.000000
vn -0.100000 -0.000000 0.000000
vn -0.100000 -0.000000 0.000000
vn -0.100000 -0.000000 0.000000
vn -0.100000 -0.000000 0.000000
vn -0.100000 -0.000000 0.000000
vn -0.100000 -0.000000 0.000000
vn 0.070711 -0.000000 0.070711
vn 0.070711 -0.000000 0.070711
vn 0.070711 -0.000000 0.070711
vn 0.070711 -0.000000 0.070711
vn 0.070711 0.070711 0.000000
vn 0.070711 0.070711 0.000000
vn 0.070711 0.070711 0.000000
vn 0.070711 0.070711 0.000000
vn 0.070711 0.070711 0.000000
vn 0.070711 0.070711 0.000000
vn 0.070711 0.070711 0.000000
vn 0.070711 0.070711 0.000000
vn 0.070711 0.070711 0.000000
vn 0.070711 0.070711 0.000000
vn 0.070711 0.070711 0.000000
vn 0.070711 0.070711 0.000000
vn 0.100000 -0.000000 0.000000
vn 0.100000 -0.000000 0.000000
vn 0.100000 -0.000000 0.000000
vn 0.100000 -0.000000 0.000000
vn 0.100000 -0.000000 0.000000
vn 0.100000 -0.000000 0.000000
vn 0.100000 -0.000000 0.000000
vn 0.100000 -0.000000 0.000000
vn 0.070711 -0.000000 -0.070711
vn 0.070711 -0.000000 -0.070711
vn 0.070711 -0.000000 -0.070711
vn 0.070711 -0.000000 -0.070711
vn 0.000000 0.000000 -0.100000
vn 0.000000 0.000000 -0.100000
vn 0.000000 0.000000 -0.100000
vn 0.000000 0.000000 -0.100000
vn 0.000000 0.000000 -0.100000
vn 0.000000 0.000000 -0.100000
vn 0.000000 0.000000 -0.100000
vn 0.000000 0.000000 -0.100000
vn 0.000000 0.000000 -0.100000
vn 0.000000 0.000000 -0.100000
vn 0.000000 0.000000 -0.100000
vn 0.000000 0.000000 -0.100000
vn 0.000000 -0.100000 0.000000
vn 0.000000 -0.100000 0.000000
vn 0.000000 -0.100000 0.000000
vn 0.000000 -0.100000 0.000000
vn 0.000000 -0.100000 0.000000
vn 0.000000 -0.100000 0.000000
vn 0.000000 -0.100000 0.000000
vn 0.000000 -0.100000 0.000000
vn 0.000000 -0.100000 0.000000
vn 0.000000 -0.100000 0.000000
vn -0.070711 -0.000000 -0.070711
vn -0.070711 -0.000000 -0.070711
vn -0.070711 -0.000000 -0.070711
vn -0.070711 -0.000000 -0.070711
vn 0.000000 -0.070711 0.070711
vn 0.000000 -0.070711 0.070711
vn 0.000000 -0.070711 0.070711
vn 0.000000 -0.070711 0.070711
vn 0.000000 -0.100000 0.000000
vn 0.000000 -0.100000 0.000000
vn 0.000000 -0.100000 0.000000
vn 0.000000 -0.100000 0.000000
vn 0.000000 -0.100000 0.000000
vn 0.000000 -0.070711 0.070711
vn 0.000000 -0.070711 0.070711
vn 0.000000 -0.070711 0.070711
vn 0.000000 -0.070711 0.070711
vn 0.000000 -0.100000 0.000000
vn 0.000000 -0.100000 0.000000
vn 0.000000 -0.100000 0.000000
vn 0.000000 -0.100000 0.000000
vn 0.000000 -0.100000 0.000000
vn 0.000000 -0.070711 -0.070711
vn 0.000000 -0.070711 -0.070711
vn 0.000000 -0.070711 -0.070711
vn 0.000000 -0.070711 -0.070711
vn 0.000000 -0.070711 -0.070711
vn 0.000000 -0.070711 -0.070711
vn 0.000000 -0.070711 -0.070711
vn 0.000000 -0.070711 -0.070711
vn -0.086603 0.000000 -0.050000
vn -0.086603 0.000000 -0.050000
vn -0.086603 0.000000 -0.050000
vn -0.086603 0.000000 -0.050000
vn -0.086603 0.000000 -0.050000
vn -0.086603 0.000000 -0.050000
vn 0.086603 -0.000000 0.050000
vn 0.086603 -0.000000 0.050000
vn 0.086603 -0.000000 0.050000
vn 0.086603 -0.000000 0.050000
vn 0.086603 -0.000000 0.050000
vn 0.086603 -0.000000 0.050000
vn -0.000000 0.000000 -0.100000
vn -0.000000 0.000000 -0.100000
vn -0.000000 0.000000 -0.100000
vn -0.000000 0.000000 -0.100000
vn 0.086603 0.000000 -0.050000
vn 0.086603 0.000000 -0.050000
vn 0.086603 0.000000 -0.050000
vn 0.086603 0.000000 -0.050000
vn 0.086603 0.000000 -0.050000
vn 0.086603 0.000000 -0.050000
vn 0.000000 0.000000 0.100000
vn 0.000000 0.000000 0.100000
vn 0.000000 0.000000 0.100000
vn 0.000000 0.000000 0.100000
vn -0.086603 0.000000 0.050000
vn -0.086603 0.000000 0.050000
vn -0.086603 0.000000 0.050000
vn -0.086603 0.000000 0.050000
vn -0.086603 0.000000 0.050000
vn -0.086603 0.000000 0.050000
vn 0.061237 -0.061237 -0.050000
vn 0.061237 -0.061237 -0.050000
vn 0.061237 -0.061237 -0.050000
vn 0.061237 -0.061237 -0.050000
vn 0.000000 -0.000000 -0.100000
vn 0.000000 -0.000000 -0.100000
vn 0.000000 -0.000000 -0.100000
vn 0.000000 -0.000000 -0.100000
vn -0.061237 0.061237 -0.050000
vn -0.061237 0.061237 -0.050000
vn -0.061237 0.061237 -0.050000
vn -0.061237 0.061237 -0.050000
vn -0.061237 0.061237 0.050000
vn -0.061237 0.061237 0.050000
vn -0.061237 0.061237 0.050000
vn -0.061237 0.061237 0.050000
vn 0.000000 -0.000000 0.100000
vn 0.000000 -0.000000 0.100000
vn 0.000000 -0.000000 0.100000
vn 0.000000 -0.000000 0.100000
vn 0.061237 -0.061237 0.050000
vn 0.061237 -0.061237 0.050000
vn 0.061237 -0.061237 0.050000
vn 0.061237 -0.061237 0.050000
vn 0.061237 0.061237 0.050000
vn 0.061237 0.061237 0.050000
vn 0.061237 0.061237 0.050000
vn 0.061237 0.061237 0.050000
vn 0.061237 0.061237 -0.050000
vn 0.061237 0.061237 -0.050000
vn 0.061237 0.061237 -0.050000
vn 0.061237 0.061237 -0.050000
vn 0.000000 0.000000 -0.100000
vn 0.000000 0.000000 -0.100000
vn 0.000000 0.000000 -0.100000
vn 0.000000 0.000000 -0.100000
vn -0.061237 -0.061237 -0.050000
vn -0.061237 -0.061237 -0.050000
vn -0.061237 -0.061237 -0.050000
vn -0.061237 -0.061237 -0.050000
vn -0.061237 -0.061237 0.050000
vn -0.061237 -0.061237 0.050000
vn -0.061237 -0.061237 0.050000
vn -0.061237 -0.061237 0.050000
vn 0.000000 0.000000 0.100000
vn 0.000000 0.000000 0.100000
vn 0.000000 0.000000 0.100000
vn 0.000000 0.000000 0.100000
vn 0.070711 -0.070711 0.000000
vn 0.070711 -0.070711 0.000000
vn 0.070711 -0.070711 0.000000
vn 0.070711 -0.070711 0.000000
vn 0.070711 -0.070711 0.000000
vn 0.070711 -0.070711 0.000000
vn 0.070711 -0.070711 0.000000
vn 0.070711 -0.070711 0.000000
vn 0.070711 -0.070711 0.000000
vn 0.070711 -0.070711 0.000000
vn -0.070711 -0.070711 0.000000
vn -0.070711 -0.070711 0.000000
vn -0.070711 -0.070711 0.000000
vn -0.070711 -0.070711 0.000000
vn -0.070711 -0.070711 0.000000
vn -0.070711 -0.070711 0.000000
vn -0.070711 -0.070711 0.000000
vn -0.070711 -0.070711 0.000000
vn -0.070711 -0.070711 0.000000
vn -0.070711 -0.070711 0.000000
vn -0.100000 0.000000 0.000000
vn -0.100000 0.000000 0.000000
vn -0.100000 0.000000 0.000000
vn -0.100000 0.000000 0.000000
vn 0.000000 0.100000 0.000000
vn 0.000000 0.100000 0.000000
vn 0.000000 0.100000 0.000000
vn 0.000000 0.100000 0.000000
vn 0.000000 0.100000 0.000000
vn 0.000000 0.100000 0.000000
vn 0.000000 0.100000 0.000000
vn 0.000000 0.100000 0.000000
vn 0.000000 0.100000 0.000000
vn 0.000000 0.100000 0.000000
vn 0.100000 -0.000000 0.000000
vn 0.100000 -0.000000 0.000000
vn 0.100000 -0.000000 0.000000
vn 0.100000 -0.000000 0.000000
vn -0.070711 0.070711 0.000000
vn -0.070711 0.070711 0.000000
vn -0.070711 0.070711 0.000000
vn -0.070711 0.070711 0.000000
vn -0.070711 0.070711 0.000000
vn -0.070711 0.070711 0.000000
vn -0.070711 0.070711 0.000000
vn -0.070711 0.070711 0.000000
vn -0.070711 0.070711 0.000000
vn -0.070711 0.070711 0.000000
vn -0.070711 -0.070711 0.000000
vn -0.070711 -0.070711 0.000000
vn -0.070711 -0.070711 0.000000
vn -0.070711 -0.070711 0.000000
vn 0.070711 -0.070711 0.000000
vn 0.070711 -0.070711 0.000000
vn 0.070711 -0.070711 0.000000
vn 0.070711 -0.070711 0.000000
vn 0.070711 -0.070711 0.000000
vn 0.070711 -0.070711 0.000000
vn 0.000000 0.000000 0.100000
vn 0.000000 0.000000 0.100000
vn 0.000000 0.000000 0.100000
vn 0.000000 0.000000 0.100000
vn 0.000000 0.000000 0.100000
vn 0.000000 0.000000 0.100000
vn 0.000000 0.000000 0.100000
vn 0.000000 0.000000 0.100000
vn 0.000000 0.000000 0.100000
vn 0.000000 0.000000 0.100000
vn 0.000000 0.000000 0.100000
vn 0.000000 0.000000 0.100000
usemtl Steel_-_Satin
f 1/1/1 2/2/2 4/3/3
f 4/3/3 2/2/2 3/4/4
f 1/5/5 7/6/6 2/7/7
f 2/7/7 7/6/6 8/8/8
f 2/7/7 8/8/8 12/9/9
f 12/9/9 8/8/8 11/10/10
f 11/10/10 8/8/8 10/11/11
f 10/11/11 8/8/8 9/12/12
f 1/5/5 5/13/13 7/6/6
f 7/6/6 5/13/13 6/14/14
f 5/15/15 1/16/16 17/17/17
f 17/17/17 1/16/16 4/18/18
f 17/17/17 4/18/18 13/19/19
f 17/17/17 13/19/19 16/20/20
f 16/20/20 13/19/19 14/21/21
f 16/20/20 14/21/21 15/22/22
f 19/23/23 12/24/24 18/25/25
f 18/25/25 12/24/24 11/26/26
f 21/27/27 26/28/28 20/29/29
f 20/29/29 26/28/28 27/30/30
f 20/29/29 27/30/30 25/31/31
f 25/31/31 27/30/30 28/32/32
f 25/31/31 28/32/32 24/33/33
f 24/33/33 28/32/32 29/34/34
f 24/33/33 29/34/34 23/35/35
f 23/35/35 29/34/34 19/36/36
f 23/35/35 19/36/36 22/37/37
f 22/37/37 19/36/36 18/38/38
f 22/37/37 18/38/38 21/27/27
f 21/27/27 18/38/38 26/28/28
f 26/39/39 18/40/40 30/41/41
f 30/41/41 18/40/40 11/42/42
f 30/41/41 11/42/42 10/43/43
f 30/41/41 31/44/44 26/39/39
f 26/39/39 31/44/44 33/45/45
f 33/45/45 31/44/44 32/46/46
f 33/47/47 34/48/48 26/49/49
f 26/49/49 34/48/48 27/50/50
f 36/51/51 41/52/52 35/53/53
f 35/53/53 41/52/52 43/54/54
f 35/53/53 43/54/54 28/55/55
f 41/52/52 36/51/51 40/56/56
f 40/56/56 36/51/51 37/57/57
f 40/56/56 37/57/57 34/58/58
f 34/58/58 37/57/57 27/59/59
f 27/59/59 37/57/57 38/60/60
f 27/59/59 38/60/60 39/61/61
f 27/59/59 39/61/61 28/55/55
f 28/55/55 39/61/61 35/53/53
f 41/52/52 42/62/62 43/54/54
f 33/63/63 45/64/64 34/65/65
f 34/65/65 45/64/64 46/66/66
f 34/65/65 46/66/66 40/67/67
f 40/67/67 46/66/66 14/68/68
f 14/68/68 46/66/66 15/69/69
f 15/69/69 46/66/66 47/70/70
f 33/63/63 32/71/71 45/64/64
f 45/64/64 32/71/71 44/72/72
f 14/73/73 13/74/74 40/75/75
f 40/75/75 13/74/74 41/76/76
f 47/77/77 48/78/78 15/79/79
f 15/79/79 48/78/78 16/80/80
f 48/81/81 49/82/82 16/83/83
f 16/83/83 49/82/82 17/84/84
f 17/84/84 49/82/82 50/85/85
f 31/86/86 51/87/87 32/88/88
f 32/88/88 51/87/87 44/89/89
f 51/90/90 31/91/91 53/92/92
f 53/92/92 31/91/91 30/93/93
f 53/92/92 30/93/93 52/94/94
f 9/95/95 52/96/96 10/97/97
f 10/97/97 52/96/96 30/98/98
f 17/99/99 50/100/100 5/101/101
f 5/101/101 50/100/100 6/102/102
f 53/103/103 52/104/104 55/105/105
f 55/105/105 52/104/104 54/106/106
f 54/106/106 52/104/104 8/107/107
f 8/107/107 52/104/104 9/108/108
f 49/109/109 48/110/110 57/111/111
f 57/111/111 48/110/110 56/112/112
f 56/112/112 48/110/110 46/113/113
f 46/113/113 48/110/110 47/114/114
f 58/115/115 54/116/116 7/117/117
f 7/117/117 54/116/116 8/118/118
f 49/119/119 57/120/120 50/121/121
f 50/121/121 57/120/120 58/122/122
f 50/121/121 58/122/122 7/123/123
f 7/123/123 6/124/124 50/121/121
f 59/125/125 56/126/126 45/127/127
f 45/127/127 56/126/126 46/128/128
f 53/129/129 55/130/130 51/131/131
f 51/131/131 55/130/130 59/132/132
f 51/131/131 59/132/132 45/133/133
f 45/133/133 44/134/134 51/131/131
f 60/135/135 61/136/136 23/137/137
f 23/137/137 61/136/136 24/138/138
f 62/139/139 60/140/140 22/141/141
f 22/141/141 60/140/140 23/142/142
f 63/143/143 62/144/144 21/145/145
f 21/145/145 62/144/144 22/146/146
f 64/147/147 63/148/148 20/149/149
f 20/149/149 63/148/148 21/150/150
f 65/151/151 64/152/152 25/153/153
f 25/153/153 64/152/152 20/154/154
f 61/155/155 65/156/156 24/157/157
f 24/157/157 65/156/156 25/158/158
f 66/159/159 67/160/160 69/161/161
f 69/161/161 67/160/160 68/162/162
f 70/163/163 66/164/164 71/165/165
f 71/165/165 66/164/164 69/166/166
f 72/167/167 70/168/168 73/169/169
f 73/169/169 70/168/168 71/170/170
f 74/171/171 72/172/172 75/173/173
f 75/173/173 72/172/172 73/174/174
f 76/175/175 74/176/176 77/177/177
f 77/177/177 74/176/176 75/178/178
f 67/179/179 76/180/180 68/181/181
f 68/181/181 76/180/180 77/182/182
f 70/183/183 72/184/184 78/185/185
f 78/185/185 72/184/184 74/186/186
f 78/185/185 74/186/186 39/187/187
f 39/187/187 74/186/186 76/188/188
f 39/187/187 76/188/188 67/189/189
f 39/187/187 67/189/189 35/190/190
f 35/190/190 67/189/189 66/191/191
f 35/190/190 66/191/191 79/192/192
f 79/192/192 66/191/191 70/183/183
f 79/192/192 70/183/183 78/185/185
f 64/193/193 38/194/194 63/195/195
f 63/195/195 38/194/194 80/196/196
f 63/195/195 80/196/196 62/197/197
f 62/197/197 80/196/196 78/198/198
f 62/197/197 78/198/198 60/199/199
f 60/199/199 78/198/198 61/200/200
f 61/200/200 78/198/198 39/201/201
f 61/200/200 39/201/201 65/202/202
f 65/202/202 39/201/201 64/193/193
f 64/193/193 39/201/201 38/194/194
f 81/203/203 80/204/204 37/205/205
f 37/205/205 80/204/204 38/206/206
f 56/207/207 36/208/208 57/209/209
f 57/209/209 36/208/208 82/210/210
f 57/209/209 82/210/210 58/211/211
f 58/211/211 82/210/210 81/212/212
f 58/211/211 81/212/212 54/213/213
f 54/213/213 81/212/212 55/214/214
f 55/214/214 81/212/212 37/215/215
f 55/214/214 37/215/215 59/216/216
f 59/216/216 37/215/215 56/207/207
f 56/207/207 37/215/215 36/208/208
f 79/217/217 82/218/218 35/219/219
f 35/219/219 82/218/218 36/220/220
f 73/221/221 29/222/222 75/223/223
f 75/223/223 29/222/222 28/224/224
f 75/223/223 28/224/224 77/225/225
f 77/225/225 28/224/224 68/226/226
f 68/226/226 28/224/224 43/227/227
f 68/226/226 43/227/227 69/228/228
f 69/228/228 43/227/227 83/229/229
f 69/228/228 83/229/229 71/230/230
f 71/230/230 83/229/229 29/222/222
f 71/230/230 29/222/222 73/221/221
f 84/231/231 83/232/232 42/233/233
f 42/233/233 83/232/232 43/234/234
f 3/235/235 84/236/236 4/237/237
f 4/237/237 84/236/236 13/238/238
f 13/238/238 84/236/236 42/239/239
f 13/238/238 42/239/239 41/240/240
f 2/241/241 82/242/242 3/243/243
f 3/243/243 82/242/242 79/244/244
f 3/243/243 79/244/244 83/245/245
f 83/245/245 79/244/244 29/246/246
f 29/246/246 79/244/244 78/247/247
f 29/246/246 78/247/247 19/248/248
f 19/248/248 78/247/247 80/249/249
f 19/248/248 80/249/249 81/250/250
f 82/242/242 2/241/241 81/250/250
f 81/250/250 2/241/241 12/251/251
f 81/250/250 12/251/251 19/248/248
f 83/245/245 84/252/252 3/243/243
# 84 vertices
# 252 texture params
# 252 normals
# 180 facets

# 1 groups
